<svg xmlns="http://www.w3.org/2000/svg" viewBox="0 0 70 94" width="350" height="470">
<rect width="70.000000" height="94.000000" x="0.000000" y="0.000000" rx="1.000000" ry="1.000000" fill="#99856d" />
<line x1= "0.000000" y1= "0.000000" x2= "70.000000" y2= "0.000000" stroke = "black" stroke-width = "2.000000" />
<line x1= "0.000000" y1= "0.000000" x2= "0.000000" y2= "94.000000" stroke = "black" stroke-width = "2.000000" />
<line x1= "0.000000" y1= "94.000000" x2= "70.000000" y2= "94.000000" stroke = "black" stroke-width = "2.000000" />
<g fill = "#383129" stroke = "#383129">
<rect width="20.000000" height="10.000000" x="15.000000" y="20.000000" rx="2.000000" ry="6.000000" fill="" />
<polygon points="33,29.89 45,28 38,18 " fill="" stroke-width="1"/>
<rect width="10.000000" height="12.000000" x="43.000000" y="18.500000" rx="1.000000" ry="6.000000" fill="" />
<polygon points="25,20 42.5,15 36,14 " fill="" stroke-width="1"/>
<polygon points="25,20 45,20 42.5,20 42.54,14.88 " fill="" stroke-width="0.5"/>
<rect width="20.000000" height="8.000000" x="28.000000" y="19.000000" rx="1.000000" ry="1.000000" fill="" />
<path d="M 42.5 14.5 C 45 17, 50 17, 52.5 14.5" fill="transparent" stroke-width="0.2"/>
<polygon points="48,19 42.5,14.5 42.5,19 " fill="" stroke-width="0"/>
<polygon points="47,19 52.5,14.5 53.2,20 " fill="" stroke-width="0"/>
<polygon points="43,15.3 46.5,16.4 47.2,19 " fill="" stroke-width="0"/>
<polygon points="52,15.3 48.5,16.4 47.8,19 " fill="" stroke-width="0"/>
<rect width="3.000000" height="2.000000" x="46.000000" y="16.799999" rx="1.000000" ry="1.000000" fill="" />
</g>
<defs>
<clipPath id="myClip">
<rect width="70.000000" height="94.000000" x="0.000000" y="0.000000" rx="1.000000" ry="1.000000" fill="" />
</clipPath>
</defs>
<g fill = "#383129" stroke = "#383129" transform="scale(1.7) translate(-5.5, 15)">
<rect width="20.000000" height="10.000000" x="15.000000" y="20.000000" rx="2.000000" ry="6.000000" fill="" />
<polygon points="33,29.89 45,28 38,18 " fill="" stroke-width="1"/>
<rect width="10.000000" height="12.000000" x="43.000000" y="18.500000" rx="1.000000" ry="6.000000" fill="" />
<polygon points="25,20 42.5,15 36,14 " fill="" stroke-width="1"/>
<polygon points="25,20 45,20 42.5,20 42.54,14.88 " fill="" stroke-width="0.5"/>
<rect width="20.000000" height="8.000000" x="28.000000" y="19.000000" rx="1.000000" ry="1.000000" fill="" />
<path d="M 42.5 14.5 C 45 17, 50 17, 52.5 14.5" fill="transparent" stroke-width="0.2"/>
<polygon points="48,19 42.5,14.5 42.5,19 " fill="" stroke-width="0"/>
<polygon points="47,19 52.5,14.5 53.2,20 " fill="" stroke-width="0"/>
<polygon points="43,15.3 46.5,16.4 47.2,19 " fill="" stroke-width="0"/>
<polygon points="52,15.3 48.5,16.4 47.8,19 " fill="" stroke-width="0"/>
<rect width="3.000000" height="2.000000" x="46.000000" y="16.799999" rx="1.000000" ry="1.000000" fill="" />
</g>
<line x1= "70.000000" y1= "0.000000" x2= "70.000000" y2= "94.000000" stroke = "black" stroke-width = "2.000000" />
</svg>